# xmcd
#
# Track frame offsets: 
#        150
#        16889
#        31006
#        45758
#        61827
#        75112
#        89841
#        106251
#        126125
#        140103
#
# Disc length: 2031 seconds
#
# Revision: 3
# Processed by: cddbd v1.5.2PL0 Copyright (c) Steve Scherf et al.
# Submitted via: ExactAudioCopy v1.3
#
DISCID=6f07ed0a
DTITLE=Holly Dunn - Cornerstone
DYEAR=1987
DGENRE=Country
TTITLE0=Cornerstone
TTITLE1=Small Towns (Are Smaller For Girls)
TTITLE2=Strangers Again
TTITLE3=Only When I Love
TTITLE4=Fewer Threads Than These
TTITLE5=Love Someone Like Me
TTITLE6=Lover's Cross
TTITLE7=Why Wyoming
TTITLE8=Wrap Me Up
TTITLE9=Little Frame House
EXTD=
EXTT0=
EXTT1=
EXTT2=
EXTT3=
EXTT4=
EXTT5=
EXTT6=
EXTT7=
EXTT8=
EXTT9=
PLAYORDER=
